<svg xmlns="http://www.w3.org/2000/svg" xmlns:xlink="http://www.w3.org/1999/xlink" xmlns:fi="http://pattern.flaticon.com/" x="0" y="0" width="5000" height="2500" viewBox="0 0 8750 4375"><rect x="0px" y="0px" width="100%" height="100%" opacity="1" fill="#ffffff"/><defs><g transform="matrix(0.11718658357858658 0 0 0.11718658357858658 62 15.000001687990334)" id="L1_5"><path d="m212.704 137.231c22.279 0 40.405-18.125 40.405-40.404s-18.126-40.405-40.405-40.405-40.404 18.126-40.404 40.405 18.125 40.404 40.404 40.404zm0-65.809c14.009 0 25.405 11.396 25.405 25.405 0 14.008-11.396 25.404-25.405 25.404-14.008 0-25.404-11.396-25.404-25.404s11.396-25.405 25.404-25.405z"/><path d="m197.84 437.005c25.496 0 46.239-20.743 46.239-46.239s-20.743-46.239-46.239-46.239-46.239 20.743-46.239 46.239 20.743 46.239 46.239 46.239zm0-77.478c17.226 0 31.239 14.014 31.239 31.239s-14.014 31.239-31.239 31.239-31.239-14.014-31.239-31.239 14.013-31.239 31.239-31.239z"/><path d="m131.618 131.633c-27.031 0-49.022 21.991-49.022 49.022s21.991 49.022 49.022 49.022 49.022-21.991 49.022-49.022-21.991-49.022-49.022-49.022zm0 83.045c-18.76 0-34.022-15.262-34.022-34.022s15.263-34.022 34.022-34.022 34.022 15.262 34.022 34.022-15.262 34.022-34.022 34.022z"/><path d="m117.578 348.725c27.031 0 49.022-21.991 49.022-49.022s-21.991-49.022-49.022-49.022-49.022 21.991-49.022 49.022 21.991 49.022 49.022 49.022zm0-83.045c18.76 0 34.022 15.262 34.022 34.022s-15.263 34.022-34.022 34.022-34.022-15.262-34.022-34.022 15.262-34.022 34.022-34.022z"/><path d="m166.44 490.454c4.069.749 7.98-1.956 8.725-6.031s-1.956-7.981-6.031-8.725c-28.747-5.249-54.463-19.51-74.368-41.242-57.979-63.299-83.793-131.571-76.726-202.921 15.947-161.023 185.751-241.171 342.349-209.85 21.156 4.231 29.396 21.475 30.021 34.955.619 13.306-5.896 31.005-26.294 37.099-26.355 7.873-47.193 19.364-61.935 34.153-33.788 33.897-36.715 91.09-4.452 129.615 15.931 19.023 26.122 42.091 29.544 66.827-16.984 38.603-34.352 82.319-47.793 122.782-21.595 17.838-48.918 28.647-77.182 30.493-4.134.27-7.266 3.839-6.996 7.973.26 3.967 3.558 7.012 7.478 7.012.164 0 .329-.005.496-.017 24.337-1.589 48.054-9.174 68.674-21.744-4.362 15.196 2.759 31.115 17.081 37.997 15.294 7.35 33.809 1.526 42.155-13.241 14.442-25.553 30.091-56.567 45.252-89.689 1.725-3.766.068-8.217-3.697-9.941-3.768-1.725-8.217-.067-9.941 3.698-14.987 32.743-30.435 63.363-44.672 88.552-4.477 7.921-14.402 11.038-22.6 7.102-7.757-3.728-11.58-12.392-9.09-20.601 19.361-63.866 51.65-141.606 81.229-201.718l40.312 17.256c-9.399 25.614-20.106 52.284-31.031 77.571-1.641 3.803.112 8.216 3.915 9.857 3.809 1.643 8.217-.112 9.858-3.915 20.578-47.754 43.545-107.401 56.948-157.581 4.764-1.711 8.207-5.157 10.032-9.421l6.491-15.164c1.391-3.249 1.698-6.692 1.091-9.93 12.484-7.969 29.958-22.184 39.013-43.338 11.187-26.13 3.753-70.399-1.674-94.461-1.039-4.61-4.255-8.474-8.6-10.334-4.346-1.86-9.36-1.521-13.414.91-21.156 12.685-58.319 37.865-69.504 63.993-9.052 21.145-7.279 43.594-4.43 58.128-2.838 1.841-5.068 4.478-6.429 7.658l-6.491 15.164c-1.84 4.297-1.929 9.151.108 13.761-20.125 32.979-40.105 73.005-56.222 108.123-5.661-19.542-15.271-37.701-28.41-53.391-12.581-15.023-18.96-32.631-18.96-52.336 0-42.524 26.29-71.939 78.14-87.429 23.613-7.054 38.13-27.531 36.985-52.167-.947-20.376-14.321-43.419-42.064-48.968-165.082-33.018-343.348 52.774-360.219 223.079-7.505 75.774 19.61 147.953 80.593 214.531 22.133 24.164 50.742 40.025 82.735 45.866zm238.926-287.359c9.829 4.207 17.333 7.42 27.162 11.627-4.903 18.033-11.545 38.989-19.458 61.388l-38.69-16.562c10.748-21.191 21.325-40.462 30.986-56.453zm45.036-17.404-6.491 15.164c-.525 1.224-1.896 1.612-2.925 1.171l-32.273-13.815c-1.046-.448-1.689-1.714-1.171-2.924l6.491-15.165c.506-1.179 1.844-1.635 2.927-1.17l32.271 13.814c1.04.446 1.68 1.736 1.171 2.925zm-25.51-81.354c3.284-7.672 16.013-28.554 63.163-56.873 12.061 53.667 5.734 77.286 2.45 84.959-7.744 18.092-23.322 30.375-34.144 37.139-.401-.211-.812-.407-1.229-.585l-32.272-13.815h-.001c-.417-.178-.841-.34-1.271-.484-2.574-12.501-4.439-32.251 3.304-50.341z"/></g><g transform="matrix(0.14150942862033844 0 0 0.14150942862033844 219 197.00000042452825)" id="L1_6"><path d="m167.289062 272.132812c-1.601562 0-3.214843-.550781-4.53125-1.671874l-45.296874-38.570313c-1.5625-1.332031-2.460938-3.277344-2.460938-5.332031 0-2.050782.902344-3.996094 2.460938-5.328125l45.296874-38.570313c2.941407-2.507812 7.359376-2.152344 9.867188.789063 2.503906 2.945312 2.152344 7.363281-.792969 9.867187l-39.035156 33.242188 39.035156 33.242187c2.945313 2.507813 3.296875 6.925781.792969 9.867188-1.386719 1.628906-3.355469 2.464843-5.335938 2.464843zm0 0"/><path d="m256.710938 272.132812c-1.980469 0-3.949219-.835937-5.332032-2.464843-2.507812-2.941407-2.152344-7.359375.789063-9.867188l39.035156-33.242187-39.035156-33.242188c-2.941407-2.503906-3.296875-6.921875-.789063-9.867187 2.503906-2.941407 6.925782-3.296875 9.863282-.789063l45.296874 38.570313c1.5625 1.332031 2.460938 3.277343 2.460938 5.328125 0 2.054687-.898438 4-2.460938 5.332031l-45.296874 38.570313c-1.316407 1.121093-2.929688 1.671874-4.53125 1.671874zm0 0"/><path d="m195.964844 301.0625c-.480469 0-.964844-.050781-1.453125-.152344-3.78125-.796875-6.203125-4.511718-5.40625-8.292968l28.230469-134.035157c.796874-3.78125 4.507812-6.203125 8.292968-5.40625 3.78125.796875 6.203125 4.507813 5.40625 8.292969l-28.230468 134.035156c-.695313 3.296875-3.601563 5.558594-6.839844 5.558594zm0 0"/><path d="m377 374.085938h-330c-25.914062 0-47-21.082032-47-47v-280.085938c0-25.914062 21.085938-47 47-47h330c25.914062 0 47 21.085938 47 47v280.085938c0 25.917968-21.085938 47-47 47zm-330-360.085938c-18.195312 0-33 14.804688-33 33v280.085938c0 18.195312 14.804688 33 33 33h330c18.195312 0 33-14.804688 33-33v-280.085938c0-18.195312-14.804688-33-33-33zm0 0"/><path d="m417 112.089844h-410c-3.867188 0-7-3.132813-7-7 0-3.863282 3.132812-7 7-7h410c3.867188 0 7 3.136718 7 7 0 3.867187-3.132812 7-7 7zm0 0"/><path d="m119.601562 78.59375c-12.210937 0-22.152343-9.941406-22.152343-22.152344 0-12.214844 9.941406-22.152344 22.152343-22.152344 12.214844 0 22.152344 9.9375 22.152344 22.152344 0 12.210938-9.9375 22.152344-22.152344 22.152344zm0-30.304688c-4.492187 0-8.152343 3.65625-8.152343 8.152344s3.660156 8.152344 8.152343 8.152344c4.496094 0 8.152344-3.65625 8.152344-8.152344s-3.65625-8.152344-8.152344-8.152344zm0 0"/><path d="m51.539062 78.378906c-12.214843 0-22.152343-9.9375-22.152343-22.152344 0-12.214843 9.9375-22.152343 22.152343-22.152343 12.214844 0 22.152344 9.9375 22.152344 22.152343 0 12.214844-9.9375 22.152344-22.152344 22.152344zm0-30.304687c-4.492187 0-8.152343 3.660156-8.152343 8.152343 0 4.496094 3.660156 8.152344 8.152343 8.152344 4.496094 0 8.152344-3.65625 8.152344-8.152344 0-4.492187-3.65625-8.152343-8.152344-8.152343zm0 0"/><path d="m187.664062 78.804688c-12.210937 0-22.148437-9.9375-22.148437-22.152344 0-12.210938 9.9375-22.148438 22.148437-22.148438 12.214844 0 22.152344 9.9375 22.152344 22.148438 0 12.214844-9.9375 22.152344-22.152344 22.152344zm0-30.304688c-4.492187 0-8.148437 3.65625-8.148437 8.152344s3.65625 8.152344 8.148437 8.152344c4.496094 0 8.152344-3.65625 8.152344-8.152344s-3.65625-8.152344-8.152344-8.152344zm0 0"/></g><g transform="matrix(0.14150942862033844 0 0 0.14150942862033844 78 222.00000049528285)"><path d="m167.289062 272.132812c-1.601562 0-3.214843-.550781-4.53125-1.671874l-45.296874-38.570313c-1.5625-1.332031-2.460938-3.277344-2.460938-5.332031 0-2.050782.902344-3.996094 2.460938-5.328125l45.296874-38.570313c2.941407-2.507812 7.359376-2.152344 9.867188.789063 2.503906 2.945312 2.152344 7.363281-.792969 9.867187l-39.035156 33.242188 39.035156 33.242187c2.945313 2.507813 3.296875 6.925781.792969 9.867188-1.386719 1.628906-3.355469 2.464843-5.335938 2.464843zm0 0"/><path d="m256.710938 272.132812c-1.980469 0-3.949219-.835937-5.332032-2.464843-2.507812-2.941407-2.152344-7.359375.789063-9.867188l39.035156-33.242187-39.035156-33.242188c-2.941407-2.503906-3.296875-6.921875-.789063-9.867187 2.503906-2.941407 6.925782-3.296875 9.863282-.789063l45.296874 38.570313c1.5625 1.332031 2.460938 3.277343 2.460938 5.328125 0 2.054687-.898438 4-2.460938 5.332031l-45.296874 38.570313c-1.316407 1.121093-2.929688 1.671874-4.53125 1.671874zm0 0"/><path d="m195.964844 301.0625c-.480469 0-.964844-.050781-1.453125-.152344-3.78125-.796875-6.203125-4.511718-5.40625-8.292968l28.230469-134.035157c.796874-3.78125 4.507812-6.203125 8.292968-5.40625 3.78125.796875 6.203125 4.507813 5.40625 8.292969l-28.230468 134.035156c-.695313 3.296875-3.601563 5.558594-6.839844 5.558594zm0 0"/><path d="m377 374.085938h-330c-25.914062 0-47-21.082032-47-47v-280.085938c0-25.914062 21.085938-47 47-47h330c25.914062 0 47 21.085938 47 47v280.085938c0 25.917968-21.085938 47-47 47zm-330-360.085938c-18.195312 0-33 14.804688-33 33v280.085938c0 18.195312 14.804688 33 33 33h330c18.195312 0 33-14.804688 33-33v-280.085938c0-18.195312-14.804688-33-33-33zm0 0"/><path d="m417 112.089844h-410c-3.867188 0-7-3.132813-7-7 0-3.863282 3.132812-7 7-7h410c3.867188 0 7 3.136718 7 7 0 3.867187-3.132812 7-7 7zm0 0"/><path d="m119.601562 78.59375c-12.210937 0-22.152343-9.941406-22.152343-22.152344 0-12.214844 9.941406-22.152344 22.152343-22.152344 12.214844 0 22.152344 9.9375 22.152344 22.152344 0 12.210938-9.9375 22.152344-22.152344 22.152344zm0-30.304688c-4.492187 0-8.152343 3.65625-8.152343 8.152344s3.660156 8.152344 8.152343 8.152344c4.496094 0 8.152344-3.65625 8.152344-8.152344s-3.65625-8.152344-8.152344-8.152344zm0 0"/><path d="m51.539062 78.378906c-12.214843 0-22.152343-9.9375-22.152343-22.152344 0-12.214843 9.9375-22.152343 22.152343-22.152343 12.214844 0 22.152344 9.9375 22.152344 22.152343 0 12.214844-9.9375 22.152344-22.152344 22.152344zm0-30.304687c-4.492187 0-8.152343 3.660156-8.152343 8.152343 0 4.496094 3.660156 8.152344 8.152343 8.152344 4.496094 0 8.152344-3.65625 8.152344-8.152344 0-4.492187-3.65625-8.152343-8.152344-8.152343zm0 0"/><path d="m187.664062 78.804688c-12.210937 0-22.148437-9.9375-22.148437-22.152344 0-12.210938 9.9375-22.148438 22.148437-22.148438 12.214844 0 22.152344 9.9375 22.152344 22.148438 0 12.214844-9.9375 22.152344-22.152344 22.152344zm0-30.304688c-4.492187 0-8.148437 3.65625-8.148437 8.152344s3.65625 8.152344 8.148437 8.152344c4.496094 0 8.152344-3.65625 8.152344-8.152344s-3.65625-8.152344-8.152344-8.152344zm0 0"/></g><g transform="matrix(0.11718658357858658 0 0 0.11718658357858658 312 107.000005063971)"><path d="m212.704 137.231c22.279 0 40.405-18.125 40.405-40.404s-18.126-40.405-40.405-40.405-40.404 18.126-40.404 40.405 18.125 40.404 40.404 40.404zm0-65.809c14.009 0 25.405 11.396 25.405 25.405 0 14.008-11.396 25.404-25.405 25.404-14.008 0-25.404-11.396-25.404-25.404s11.396-25.405 25.404-25.405z"/><path d="m197.84 437.005c25.496 0 46.239-20.743 46.239-46.239s-20.743-46.239-46.239-46.239-46.239 20.743-46.239 46.239 20.743 46.239 46.239 46.239zm0-77.478c17.226 0 31.239 14.014 31.239 31.239s-14.014 31.239-31.239 31.239-31.239-14.014-31.239-31.239 14.013-31.239 31.239-31.239z"/><path d="m131.618 131.633c-27.031 0-49.022 21.991-49.022 49.022s21.991 49.022 49.022 49.022 49.022-21.991 49.022-49.022-21.991-49.022-49.022-49.022zm0 83.045c-18.76 0-34.022-15.262-34.022-34.022s15.263-34.022 34.022-34.022 34.022 15.262 34.022 34.022-15.262 34.022-34.022 34.022z"/><path d="m117.578 348.725c27.031 0 49.022-21.991 49.022-49.022s-21.991-49.022-49.022-49.022-49.022 21.991-49.022 49.022 21.991 49.022 49.022 49.022zm0-83.045c18.76 0 34.022 15.262 34.022 34.022s-15.263 34.022-34.022 34.022-34.022-15.262-34.022-34.022 15.262-34.022 34.022-34.022z"/><path d="m166.44 490.454c4.069.749 7.98-1.956 8.725-6.031s-1.956-7.981-6.031-8.725c-28.747-5.249-54.463-19.51-74.368-41.242-57.979-63.299-83.793-131.571-76.726-202.921 15.947-161.023 185.751-241.171 342.349-209.85 21.156 4.231 29.396 21.475 30.021 34.955.619 13.306-5.896 31.005-26.294 37.099-26.355 7.873-47.193 19.364-61.935 34.153-33.788 33.897-36.715 91.09-4.452 129.615 15.931 19.023 26.122 42.091 29.544 66.827-16.984 38.603-34.352 82.319-47.793 122.782-21.595 17.838-48.918 28.647-77.182 30.493-4.134.27-7.266 3.839-6.996 7.973.26 3.967 3.558 7.012 7.478 7.012.164 0 .329-.005.496-.017 24.337-1.589 48.054-9.174 68.674-21.744-4.362 15.196 2.759 31.115 17.081 37.997 15.294 7.35 33.809 1.526 42.155-13.241 14.442-25.553 30.091-56.567 45.252-89.689 1.725-3.766.068-8.217-3.697-9.941-3.768-1.725-8.217-.067-9.941 3.698-14.987 32.743-30.435 63.363-44.672 88.552-4.477 7.921-14.402 11.038-22.6 7.102-7.757-3.728-11.58-12.392-9.09-20.601 19.361-63.866 51.65-141.606 81.229-201.718l40.312 17.256c-9.399 25.614-20.106 52.284-31.031 77.571-1.641 3.803.112 8.216 3.915 9.857 3.809 1.643 8.217-.112 9.858-3.915 20.578-47.754 43.545-107.401 56.948-157.581 4.764-1.711 8.207-5.157 10.032-9.421l6.491-15.164c1.391-3.249 1.698-6.692 1.091-9.93 12.484-7.969 29.958-22.184 39.013-43.338 11.187-26.13 3.753-70.399-1.674-94.461-1.039-4.61-4.255-8.474-8.6-10.334-4.346-1.86-9.36-1.521-13.414.91-21.156 12.685-58.319 37.865-69.504 63.993-9.052 21.145-7.279 43.594-4.43 58.128-2.838 1.841-5.068 4.478-6.429 7.658l-6.491 15.164c-1.84 4.297-1.929 9.151.108 13.761-20.125 32.979-40.105 73.005-56.222 108.123-5.661-19.542-15.271-37.701-28.41-53.391-12.581-15.023-18.96-32.631-18.96-52.336 0-42.524 26.29-71.939 78.14-87.429 23.613-7.054 38.13-27.531 36.985-52.167-.947-20.376-14.321-43.419-42.064-48.968-165.082-33.018-343.348 52.774-360.219 223.079-7.505 75.774 19.61 147.953 80.593 214.531 22.133 24.164 50.742 40.025 82.735 45.866zm238.926-287.359c9.829 4.207 17.333 7.42 27.162 11.627-4.903 18.033-11.545 38.989-19.458 61.388l-38.69-16.562c10.748-21.191 21.325-40.462 30.986-56.453zm45.036-17.404-6.491 15.164c-.525 1.224-1.896 1.612-2.925 1.171l-32.273-13.815c-1.046-.448-1.689-1.714-1.171-2.924l6.491-15.165c.506-1.179 1.844-1.635 2.927-1.17l32.271 13.814c1.04.446 1.68 1.736 1.171 2.925zm-25.51-81.354c3.284-7.672 16.013-28.554 63.163-56.873 12.061 53.667 5.734 77.286 2.45 84.959-7.744 18.092-23.322 30.375-34.144 37.139-.401-.211-.812-.407-1.229-.585l-32.272-13.815h-.001c-.417-.178-.841-.34-1.271-.484-2.574-12.501-4.439-32.251 3.304-50.341z"/></g><g transform="matrix(0.11718658357858658 0 0 0.11718658357858658 256 220.00000421997584)"><path d="m212.704 137.231c22.279 0 40.405-18.125 40.405-40.404s-18.126-40.405-40.405-40.405-40.404 18.126-40.404 40.405 18.125 40.404 40.404 40.404zm0-65.809c14.009 0 25.405 11.396 25.405 25.405 0 14.008-11.396 25.404-25.405 25.404-14.008 0-25.404-11.396-25.404-25.404s11.396-25.405 25.404-25.405z"/><path d="m197.84 437.005c25.496 0 46.239-20.743 46.239-46.239s-20.743-46.239-46.239-46.239-46.239 20.743-46.239 46.239 20.743 46.239 46.239 46.239zm0-77.478c17.226 0 31.239 14.014 31.239 31.239s-14.014 31.239-31.239 31.239-31.239-14.014-31.239-31.239 14.013-31.239 31.239-31.239z"/><path d="m131.618 131.633c-27.031 0-49.022 21.991-49.022 49.022s21.991 49.022 49.022 49.022 49.022-21.991 49.022-49.022-21.991-49.022-49.022-49.022zm0 83.045c-18.76 0-34.022-15.262-34.022-34.022s15.263-34.022 34.022-34.022 34.022 15.262 34.022 34.022-15.262 34.022-34.022 34.022z"/><path d="m117.578 348.725c27.031 0 49.022-21.991 49.022-49.022s-21.991-49.022-49.022-49.022-49.022 21.991-49.022 49.022 21.991 49.022 49.022 49.022zm0-83.045c18.76 0 34.022 15.262 34.022 34.022s-15.263 34.022-34.022 34.022-34.022-15.262-34.022-34.022 15.262-34.022 34.022-34.022z"/><path d="m166.44 490.454c4.069.749 7.98-1.956 8.725-6.031s-1.956-7.981-6.031-8.725c-28.747-5.249-54.463-19.51-74.368-41.242-57.979-63.299-83.793-131.571-76.726-202.921 15.947-161.023 185.751-241.171 342.349-209.85 21.156 4.231 29.396 21.475 30.021 34.955.619 13.306-5.896 31.005-26.294 37.099-26.355 7.873-47.193 19.364-61.935 34.153-33.788 33.897-36.715 91.09-4.452 129.615 15.931 19.023 26.122 42.091 29.544 66.827-16.984 38.603-34.352 82.319-47.793 122.782-21.595 17.838-48.918 28.647-77.182 30.493-4.134.27-7.266 3.839-6.996 7.973.26 3.967 3.558 7.012 7.478 7.012.164 0 .329-.005.496-.017 24.337-1.589 48.054-9.174 68.674-21.744-4.362 15.196 2.759 31.115 17.081 37.997 15.294 7.35 33.809 1.526 42.155-13.241 14.442-25.553 30.091-56.567 45.252-89.689 1.725-3.766.068-8.217-3.697-9.941-3.768-1.725-8.217-.067-9.941 3.698-14.987 32.743-30.435 63.363-44.672 88.552-4.477 7.921-14.402 11.038-22.6 7.102-7.757-3.728-11.58-12.392-9.09-20.601 19.361-63.866 51.65-141.606 81.229-201.718l40.312 17.256c-9.399 25.614-20.106 52.284-31.031 77.571-1.641 3.803.112 8.216 3.915 9.857 3.809 1.643 8.217-.112 9.858-3.915 20.578-47.754 43.545-107.401 56.948-157.581 4.764-1.711 8.207-5.157 10.032-9.421l6.491-15.164c1.391-3.249 1.698-6.692 1.091-9.93 12.484-7.969 29.958-22.184 39.013-43.338 11.187-26.13 3.753-70.399-1.674-94.461-1.039-4.61-4.255-8.474-8.6-10.334-4.346-1.86-9.36-1.521-13.414.91-21.156 12.685-58.319 37.865-69.504 63.993-9.052 21.145-7.279 43.594-4.43 58.128-2.838 1.841-5.068 4.478-6.429 7.658l-6.491 15.164c-1.84 4.297-1.929 9.151.108 13.761-20.125 32.979-40.105 73.005-56.222 108.123-5.661-19.542-15.271-37.701-28.41-53.391-12.581-15.023-18.96-32.631-18.96-52.336 0-42.524 26.29-71.939 78.14-87.429 23.613-7.054 38.13-27.531 36.985-52.167-.947-20.376-14.321-43.419-42.064-48.968-165.082-33.018-343.348 52.774-360.219 223.079-7.505 75.774 19.61 147.953 80.593 214.531 22.133 24.164 50.742 40.025 82.735 45.866zm238.926-287.359c9.829 4.207 17.333 7.42 27.162 11.627-4.903 18.033-11.545 38.989-19.458 61.388l-38.69-16.562c10.748-21.191 21.325-40.462 30.986-56.453zm45.036-17.404-6.491 15.164c-.525 1.224-1.896 1.612-2.925 1.171l-32.273-13.815c-1.046-.448-1.689-1.714-1.171-2.924l6.491-15.165c.506-1.179 1.844-1.635 2.927-1.17l32.271 13.814c1.04.446 1.68 1.736 1.171 2.925zm-25.51-81.354c3.284-7.672 16.013-28.554 63.163-56.873 12.061 53.667 5.734 77.286 2.45 84.959-7.744 18.092-23.322 30.375-34.144 37.139-.401-.211-.812-.407-1.229-.585l-32.272-13.815h-.001c-.417-.178-.841-.34-1.271-.484-2.574-12.501-4.439-32.251 3.304-50.341z"/></g><g transform="matrix(0.14150942862033844 0 0 0.14150942862033844 203 -22.999999327830267)"><path d="m167.289062 272.132812c-1.601562 0-3.214843-.550781-4.53125-1.671874l-45.296874-38.570313c-1.5625-1.332031-2.460938-3.277344-2.460938-5.332031 0-2.050782.902344-3.996094 2.460938-5.328125l45.296874-38.570313c2.941407-2.507812 7.359376-2.152344 9.867188.789063 2.503906 2.945312 2.152344 7.363281-.792969 9.867187l-39.035156 33.242188 39.035156 33.242187c2.945313 2.507813 3.296875 6.925781.792969 9.867188-1.386719 1.628906-3.355469 2.464843-5.335938 2.464843zm0 0" fill="#000000"/><path d="m256.710938 272.132812c-1.980469 0-3.949219-.835937-5.332032-2.464843-2.507812-2.941407-2.152344-7.359375.789063-9.867188l39.035156-33.242187-39.035156-33.242188c-2.941407-2.503906-3.296875-6.921875-.789063-9.867187 2.503906-2.941407 6.925782-3.296875 9.863282-.789063l45.296874 38.570313c1.5625 1.332031 2.460938 3.277343 2.460938 5.328125 0 2.054687-.898438 4-2.460938 5.332031l-45.296874 38.570313c-1.316407 1.121093-2.929688 1.671874-4.53125 1.671874zm0 0" fill="#000000"/><path d="m195.964844 301.0625c-.480469 0-.964844-.050781-1.453125-.152344-3.78125-.796875-6.203125-4.511718-5.40625-8.292968l28.230469-134.035157c.796874-3.78125 4.507812-6.203125 8.292968-5.40625 3.78125.796875 6.203125 4.507813 5.40625 8.292969l-28.230468 134.035156c-.695313 3.296875-3.601563 5.558594-6.839844 5.558594zm0 0" fill="#000000"/><path d="m377 374.085938h-330c-25.914062 0-47-21.082032-47-47v-280.085938c0-25.914062 21.085938-47 47-47h330c25.914062 0 47 21.085938 47 47v280.085938c0 25.917968-21.085938 47-47 47zm-330-360.085938c-18.195312 0-33 14.804688-33 33v280.085938c0 18.195312 14.804688 33 33 33h330c18.195312 0 33-14.804688 33-33v-280.085938c0-18.195312-14.804688-33-33-33zm0 0" fill="#000000"/><path d="m417 112.089844h-410c-3.867188 0-7-3.132813-7-7 0-3.863282 3.132812-7 7-7h410c3.867188 0 7 3.136718 7 7 0 3.867187-3.132812 7-7 7zm0 0" fill="#000000"/><path d="m119.601562 78.59375c-12.210937 0-22.152343-9.941406-22.152343-22.152344 0-12.214844 9.941406-22.152344 22.152343-22.152344 12.214844 0 22.152344 9.9375 22.152344 22.152344 0 12.210938-9.9375 22.152344-22.152344 22.152344zm0-30.304688c-4.492187 0-8.152343 3.65625-8.152343 8.152344s3.660156 8.152344 8.152343 8.152344c4.496094 0 8.152344-3.65625 8.152344-8.152344s-3.65625-8.152344-8.152344-8.152344zm0 0" fill="#000000"/><path d="m51.539062 78.378906c-12.214843 0-22.152343-9.9375-22.152343-22.152344 0-12.214843 9.9375-22.152343 22.152343-22.152343 12.214844 0 22.152344 9.9375 22.152344 22.152343 0 12.214844-9.9375 22.152344-22.152344 22.152344zm0-30.304687c-4.492187 0-8.152343 3.660156-8.152343 8.152343 0 4.496094 3.660156 8.152344 8.152343 8.152344 4.496094 0 8.152344-3.65625 8.152344-8.152344 0-4.492187-3.65625-8.152343-8.152344-8.152343zm0 0" fill="#000000"/><path d="m187.664062 78.804688c-12.210937 0-22.148437-9.9375-22.148437-22.152344 0-12.210938 9.9375-22.148438 22.148437-22.148438 12.214844 0 22.152344 9.9375 22.152344 22.148438 0 12.214844-9.9375 22.152344-22.152344 22.152344zm0-30.304688c-4.492187 0-8.148437 3.65625-8.148437 8.152344s3.65625 8.152344 8.148437 8.152344c4.496094 0 8.152344-3.65625 8.152344-8.152344s-3.65625-8.152344-8.152344-8.152344zm0 0" fill="#000000"/></g></defs><g fi:class="KUsePattern" opacity="0.07"><pattern id="pattern_L1_5" width="350" height="350" patternUnits="userSpaceOnUse"><use xlink:href="#L1_5" x="-350" y="-350"/><use xlink:href="#L1_5" x="0" y="-350"/><use xlink:href="#L1_5" x="350" y="-350"/><use xlink:href="#L1_5" x="-350" y="0"/><use xlink:href="#L1_5" x="0" y="0"/><use xlink:href="#L1_5" x="350" y="0"/><use xlink:href="#L1_5" x="-350" y="350"/><use xlink:href="#L1_5" x="0" y="350"/><use xlink:href="#L1_5" x="350" y="350"/></pattern><rect x="0" y="0" width="100%" height="100%" fill="url(#pattern_L1_5)"/></g><g fi:class="KUsePattern" opacity="0.07"><pattern id="pattern_L1_6" width="350" height="350" patternUnits="userSpaceOnUse"><use xlink:href="#L1_6" x="-350" y="-350"/><use xlink:href="#L1_6" x="0" y="-350"/><use xlink:href="#L1_6" x="350" y="-350"/><use xlink:href="#L1_6" x="-350" y="0"/><use xlink:href="#L1_6" x="0" y="0"/><use xlink:href="#L1_6" x="350" y="0"/><use xlink:href="#L1_6" x="-350" y="350"/><use xlink:href="#L1_6" x="0" y="350"/><use xlink:href="#L1_6" x="350" y="350"/></pattern><rect x="0" y="0" width="100%" height="100%" fill="url(#pattern_L1_6)"/></g><g fi:class="KUsePattern" transform="matrix(1 0 0 1 20 20)" opacity="0.07"><pattern id="pattern_UNKNOWN" width="350" height="350" patternUnits="userSpaceOnUse"><use xlink:href="#UNKNOWN" x="-350" y="-350"/><use xlink:href="#UNKNOWN" x="0" y="-350"/><use xlink:href="#UNKNOWN" x="350" y="-350"/><use xlink:href="#UNKNOWN" x="-350" y="0"/><use xlink:href="#UNKNOWN" x="0" y="0"/><use xlink:href="#UNKNOWN" x="350" y="0"/><use xlink:href="#UNKNOWN" x="-350" y="350"/><use xlink:href="#UNKNOWN" x="0" y="350"/><use xlink:href="#UNKNOWN" x="350" y="350"/></pattern><rect x="0" y="0" width="100%" height="100%" fill="url(#pattern_UNKNOWN)"/></g><g fi:class="KUsePattern" transform="matrix(1 0 0 1 20 20)" opacity="0.07"><pattern id="pattern_UNKNOWN" width="350" height="350" patternUnits="userSpaceOnUse"><use xlink:href="#UNKNOWN" x="-350" y="-350"/><use xlink:href="#UNKNOWN" x="0" y="-350"/><use xlink:href="#UNKNOWN" x="350" y="-350"/><use xlink:href="#UNKNOWN" x="-350" y="0"/><use xlink:href="#UNKNOWN" x="0" y="0"/><use xlink:href="#UNKNOWN" x="350" y="0"/><use xlink:href="#UNKNOWN" x="-350" y="350"/><use xlink:href="#UNKNOWN" x="0" y="350"/><use xlink:href="#UNKNOWN" x="350" y="350"/></pattern><rect x="0" y="0" width="100%" height="100%" fill="url(#pattern_UNKNOWN)"/></g><g fi:class="KUsePattern" transform="matrix(1 0 0 1 20 20)" opacity="0.07"><pattern id="pattern_UNKNOWN" width="350" height="350" patternUnits="userSpaceOnUse"><use xlink:href="#UNKNOWN" x="-350" y="-350"/><use xlink:href="#UNKNOWN" x="0" y="-350"/><use xlink:href="#UNKNOWN" x="350" y="-350"/><use xlink:href="#UNKNOWN" x="-350" y="0"/><use xlink:href="#UNKNOWN" x="0" y="0"/><use xlink:href="#UNKNOWN" x="350" y="0"/><use xlink:href="#UNKNOWN" x="-350" y="350"/><use xlink:href="#UNKNOWN" x="0" y="350"/><use xlink:href="#UNKNOWN" x="350" y="350"/></pattern><rect x="0" y="0" width="100%" height="100%" fill="url(#pattern_UNKNOWN)"/></g><g fi:class="KUsePattern" transform="matrix(1 0 0 1 40 40)" opacity="0.07"><pattern id="pattern_UNKNOWN" width="350" height="350" patternUnits="userSpaceOnUse"><use xlink:href="#UNKNOWN" x="-350" y="-350"/><use xlink:href="#UNKNOWN" x="0" y="-350"/><use xlink:href="#UNKNOWN" x="350" y="-350"/><use xlink:href="#UNKNOWN" x="-350" y="0"/><use xlink:href="#UNKNOWN" x="0" y="0"/><use xlink:href="#UNKNOWN" x="350" y="0"/><use xlink:href="#UNKNOWN" x="-350" y="350"/><use xlink:href="#UNKNOWN" x="0" y="350"/><use xlink:href="#UNKNOWN" x="350" y="350"/></pattern><rect x="0" y="0" width="100%" height="100%" fill="url(#pattern_UNKNOWN)"/></g></svg>