<svg xmlns="http://www.w3.org/2000/svg" width="58.367" height="54.754" viewBox="0 0 58.367 54.754">
  <g id="Group_31" data-name="Group 31" transform="translate(-937 -1723.555)">
    <g id="code" transform="translate(937 1707.71)">
      <g id="Group_7" data-name="Group 7" transform="translate(0 15.845)">
        <g id="Group_6" data-name="Group 6" transform="translate(0 0)">
          <path id="Path_2" data-name="Path 2" d="M0,15.845V63.754H18.734v3.426H15.309V70.6H43.057v-3.42H39.633V63.754H58.367V15.845ZM36.213,67.179H22.154V63.754h14.06v3.426Zm18.734-6.846H3.42V53.485H54.947v6.848Zm0-10.268H3.42v-30.8H54.947v30.8Z" transform="translate(0 -15.845)" fill="#8b26f0"/>
        </g>
      </g>
      <g id="Group_9" data-name="Group 9" transform="translate(12.231 26.065)">
        <g id="Group_8" data-name="Group 8" transform="translate(0 0)">
          <path id="Path_3" data-name="Path 3" d="M118.308,107.916,115.89,105.5l-8.6,8.6,8.6,8.6,2.418-2.418-6.182-6.181Z" transform="translate(-107.29 -105.498)" fill="#8b26f0"/>
        </g>
      </g>
      <g id="Group_11" data-name="Group 11" transform="translate(35.118 26.065)">
        <g id="Group_10" data-name="Group 10" transform="translate(0 0)">
          <path id="Path_4" data-name="Path 4" d="M310.475,105.5l-2.418,2.418,6.182,6.182-6.182,6.181,2.418,2.418,8.6-8.6Z" transform="translate(-308.057 -105.498)" fill="#8b26f0"/>
        </g>
      </g>
      <g id="Group_13" data-name="Group 13" transform="translate(25.521 24.353)">
        <g id="Group_12" data-name="Group 12">
          <rect id="Rectangle_1094" data-name="Rectangle 1094" width="20.35" height="3.42" transform="matrix(0.195, -0.981, 0.981, 0.195, 0, 19.959)" fill="#8b26f0"/>
        </g>
      </g>
    </g>
  </g>
</svg>
