<svg xmlns="http://www.w3.org/2000/svg" width="56.201" height="56.201" viewBox="0 0 56.201 56.201">
  <g id="paint" transform="translate(0 0)">
    <path id="Path_17" data-name="Path 17" d="M16.575,46.212a6.568,6.568,0,0,0-2.1-4.811v-.009c.117-1.612.211-3.311.283-5.065,3.371.635,5.76,1.913,7.112,3.812a7.955,7.955,0,0,1,1.1,6.146,4.958,4.958,0,0,0,3.763,6.051,25.175,25.175,0,0,0,4.754.458A24.873,24.873,0,0,0,56.2,28.1c0-13.9-12.084-25.238-24.708-24.785-6.9.248-13.1,3.645-17.37,7.385q-.082-.764-.172-1.487a39.659,39.659,0,0,0-1.1-5.944C12.564,2.292,11.891,0,9.989,0S7.414,2.292,7.127,3.27a39.673,39.673,0,0,0-1.1,5.944A161.4,161.4,0,0,0,5.049,28.1c0,4.645.155,9.241.448,13.291V41.4a6.568,6.568,0,0,0-2.1,4.811v3.4A3.394,3.394,0,0,1,0,52.908V56.2H6.7a9.968,9.968,0,0,0,9.879-9.989ZM31.611,6.607c10.609-.381,21.3,9.305,21.3,21.493a21.538,21.538,0,0,1-25.552,21A1.681,1.681,0,0,1,26.185,47a11.123,11.123,0,0,0-1.627-8.775c-1.934-2.715-5.189-4.47-9.688-5.227.038-1.613.058-5.023.058-5.085a4.939,4.939,0,1,0-.1-6.332c-.073-2.339-.186-4.583-.335-6.68,3.726-3.936,10.025-8.043,17.118-8.3ZM17.08,24.265a1.647,1.647,0,1,1,1.164,2.017A1.646,1.646,0,0,1,17.08,24.265ZM9.132,11.025A52.715,52.715,0,0,1,9.989,5.37a52.715,52.715,0,0,1,.857,5.656,167.626,167.626,0,0,1,.79,17.075q0,.825-.007,1.647H8.349q-.007-.821-.007-1.647a167.626,167.626,0,0,1,.79-17.075ZM8.4,33.039h3.173c-.056,2.325-.152,4.587-.286,6.717a6.592,6.592,0,0,0-2.6,0c-.133-2.13-.229-4.391-.286-6.717ZM6.7,49.615v-3.4a3.293,3.293,0,1,1,6.586,0,6.649,6.649,0,0,1-6.586,6.7H5.79A6.408,6.408,0,0,0,6.7,49.615Z" transform="translate(0 0)" fill="#8b26f0"/>
    <path id="Path_18" data-name="Path 18" d="M326.342,126.667a1.706,1.706,0,1,0,2.41,0,1.707,1.707,0,0,0-2.41,0Zm1.607,1.609a.569.569,0,1,1,0-.8A.568.568,0,0,1,327.948,128.276Z" transform="translate(-280.194 -115.731)" fill="#8b26f0"/>
    <path id="Path_19" data-name="Path 19" d="M216.155,104.8a4.94,4.94,0,1,0-6.05-3.493A4.945,4.945,0,0,0,216.155,104.8Zm-1.7-6.362a1.646,1.646,0,1,1-1.164,2.017A1.649,1.649,0,0,1,214.451,98.434Z" transform="translate(-186.892 -84.647)" fill="#8b26f0"/>
    <path id="Path_20" data-name="Path 20" d="M272.221,333.117a4.94,4.94,0,1,0,3.493-6.05A4.945,4.945,0,0,0,272.221,333.117Zm4.345-2.869a1.647,1.647,0,1,1-1.164,2.017A1.646,1.646,0,0,1,276.567,330.248Z" transform="translate(-242.19 -291.015)" fill="#8b26f0"/>
    <path id="Path_21" data-name="Path 21" d="M357.074,245.707a4.94,4.94,0,1,0,6.05-3.493A4.945,4.945,0,0,0,357.074,245.707Zm6.362,1.7a1.646,1.646,0,1,1-1.164-2.017A1.646,1.646,0,0,1,363.436,247.412Z" transform="translate(-317.729 -215.476)" fill="#8b26f0"/>
  </g>
</svg>
