<svg xmlns="http://www.w3.org/2000/svg" width="64.001" height="57.084" viewBox="0 0 64.001 57.084">
  <g id="content" transform="translate(0 -27.666)">
    <g id="Group_17" data-name="Group 17" transform="translate(0 27.666)">
      <path id="Path_7" data-name="Path 7" d="M339.764,74.863h-.007a1.253,1.253,0,1,0,.007,0Z" transform="translate(-296.196 -68.963)" fill="#8b26f0"/>
      <path id="Path_8" data-name="Path 8" d="M388.137,74.863h0a1.25,1.25,0,1,0,1.254,1.25A1.248,1.248,0,0,0,388.133,74.863Z" transform="translate(-338.524 -68.963)" fill="#8b26f0"/>
      <path id="Path_9" data-name="Path 9" d="M291.4,74.863H291.4a1.253,1.253,0,1,0,.007,0Z" transform="translate(-253.882 -68.963)" fill="#8b26f0"/>
      <path id="Path_10" data-name="Path 10" d="M72.109,74.863H55.278a1.25,1.25,0,1,0,0,2.5H72.109a1.25,1.25,0,1,0,0-2.5Z" transform="translate(-47.274 -68.963)" fill="#8b26f0"/>
      <path id="Path_11" data-name="Path 11" d="M63.988,79.626a4.751,4.751,0,0,0-1.637-3.277l-4.734-4.1V31.389a3.728,3.728,0,0,0-3.723-3.723H3.723A3.728,3.728,0,0,0,0,31.389V72.872A3.728,3.728,0,0,0,3.723,76.6H48.011l8.072,6.991a4.75,4.75,0,0,0,3.125,1.164q.175,0,.352-.013a4.773,4.773,0,0,0,4.429-5.111ZM2.5,31.389a1.225,1.225,0,0,1,1.223-1.223h50.17a1.225,1.225,0,0,1,1.223,1.223v8.073H2.5ZM3.723,74.1A1.225,1.225,0,0,1,2.5,72.872V41.962H55.116V70.085l-9.09-7.871c0-.158-.006-.317-.017-.477a7.362,7.362,0,0,0-.14-.988h4.5a1.25,1.25,0,0,0,1.25-1.25V46.431a1.25,1.25,0,0,0-1.25-1.25H34.415a1.25,1.25,0,1,0,0,2.5h14.7V58.249h-4.3a7.291,7.291,0,0,0-1.3-1.482l-.033-.028a6.158,6.158,0,0,0-4.463-1.47c-1.459,0-2.968,0-6.171-2.658a1.25,1.25,0,0,0-1.743.145,7.55,7.55,0,0,0-1.634,5.492H8.5V47.681H23.19a1.25,1.25,0,1,0,0-2.5H7.249A1.25,1.25,0,0,0,6,46.431V59.5a1.25,1.25,0,0,0,1.25,1.25h22.63a14.522,14.522,0,0,0,4.133,7,7.2,7.2,0,0,0,4.74,1.771,7.023,7.023,0,0,0,1.01-.071L45.125,74.1Zm38.64-8.72a4.76,4.76,0,0,1-6.715.485c-2.477-2.144-4.608-7.338-3.28-10.451,3.206,2.358,5.1,2.359,6.651,2.36a3.714,3.714,0,0,1,2.879.9,4.757,4.757,0,0,1,.465,6.7Zm.118,3.124a7.317,7.317,0,0,0,2.992-3.457l9.848,8.527-2.994,3.457ZM60.945,81.465a2.3,2.3,0,0,1-3.225.231l-3.5-3.033,2.994-3.457,3.5,3.033a2.3,2.3,0,0,1,.23,3.226Z" transform="translate(0 -27.666)" fill="#8b26f0"/>
      <path id="Path_12" data-name="Path 12" d="M119.369,315.336h10.867a1.25,1.25,0,1,0,0-2.5H119.369a1.25,1.25,0,1,0,0,2.5Z" transform="translate(-103.354 -277.189)" fill="#8b26f0"/>
      <path id="Path_13" data-name="Path 13" d="M49.24,315.336h3.7a1.25,1.25,0,1,0,0-2.5h-3.7a1.25,1.25,0,1,0,0,2.5Z" transform="translate(-41.991 -277.189)" fill="#8b26f0"/>
      <path id="Path_14" data-name="Path 14" d="M59.491,353.344H49.24a1.25,1.25,0,0,0,0,2.5H59.491a1.25,1.25,0,1,0,0-2.5Z" transform="translate(-41.991 -312.634)" fill="#8b26f0"/>
      <path id="Path_15" data-name="Path 15" d="M187.484,353.344H181.9a1.25,1.25,0,1,0,0,2.5h5.584a1.25,1.25,0,1,0,0-2.5Z" transform="translate(-158.069 -312.634)" fill="#8b26f0"/>
      <path id="Path_16" data-name="Path 16" d="M221.671,170.285h.007a1.253,1.253,0,1,0-.007,0Z" transform="translate(-192.868 -150.27)" fill="#8b26f0"/>
    </g>
  </g>
</svg>
